:SAMPLES-PER-SECOND 30
:FULLY-SPECIFIED
:DEGREES
109
root  -45.1163 38.4666 7.41827 -90.8345 -82.8457 85.68
RightUpLeg  -22.7578 -11.1234 -11.2703
RightLeg  5.99347 2.86797 -0.328799
RightFoot  -4.51601 -0.579877 9.15628
RightToes  5.82063e-011 0 -3.6325e-017
Spine  14.8242 -1.8064 -5.328
Spine1  11.1324 -2.26565 -0.74727
HEad  -23.0002 -3.38131 -0.168336
LeftShoulder1  0.469716 2.03984 -26.0614
LeftArm  -4.08012 -32.2714 -50.6343
LeftForeArm  2.56982 -47.6181 -12.1176
LeftHand  -0.00162961 7.49165 1.92533
RightShoulder  -0.310795 -4.52153 23.3008
RightArm  -6.45966 24.4661 42.139
RightForeArm  -17.3244 43.21 11.5702
RightHand  -1.27268 9.91336 -10.005
LeftUpLeg  -0.572682 -0.699726 -11.3763
LeftLeg  26.5861 2.0872 1.48976
LeftFoot  -19.8962 0.572454 6.06423
LeftToes  -1.20963e-009 8.6283e-011 2.04439e-011
110
root  -46.364 38.1742 7.08451 -82.4963 -82.4518 76.5423
RightUpLeg  -21.8872 -12.1588 -11.3959
RightLeg  2.20172 1.00321 -0.520661
RightFoot  -4.05229 -0.556818 8.23016
RightToes  5.82063e-011 0 -3.6325e-017
Spine  16.0699 -1.98119 -3.66473
Spine1  10.5388 -2.10767 -1.49824
HEad  -23.0049 -4.41042 -0.342236
LeftShoulder1  0.767955 0.9015 -23.2533
LeftArm  -4.65375 -37.6399 -52.1875
LeftForeArm  -0.355757 -45.8048 -11.5487
LeftHand  0.0211703 8.22795 2.56621
RightShoulder  -0.100813 -3.85715 20.7205
RightArm  -9.96384 30.5651 40.9545
RightForeArm  -19.7508 39.8794 10.4837
RightHand  -1.28361 10.1208 -9.96483
LeftUpLeg  1.75114 -1.45469 -11.249
LeftLeg  28.1971 1.92597 1.47315
LeftFoot  -22.3562 0.638258 5.20138
LeftToes  -1.20963e-009 8.6283e-011 2.04439e-011
111
root  -47.588 37.7542 6.75094 -82.6844 -82.506 75.9177
RightUpLeg  -23.0177 -11.8424 -10.6911
RightLeg  5.83108 1.87119 -0.34459
RightFoot  -0.483042 -0.523396 5.81107
RightToes  5.82063e-011 0 -3.6325e-017
Spine  17.4927 -2.16642 -1.27856
Spine1  10.7219 -1.69678 -2.63507
HEad  -23.3497 -5.44097 -0.681431
LeftShoulder1  0.905091 0.166409 -20.5997
LeftArm  -6.57393 -43.0085 -53.2281
LeftForeArm  -2.14033 -43.5164 -10.7756
LeftHand  -0.0190067 8.06513 0.97896
RightShoulder  0.0459305 -3.28025 18.4021
RightArm  -13.2755 38.0701 39.3822
RightForeArm  -23.6144 35.1673 9.14497
RightHand  -1.35265 10.4039 -10.2519
LeftUpLeg  2.66889 -0.625145 -10.4295
LeftLeg  32.5264 1.30604 1.27587
LeftFoot  -24.5339 0.577001 3.78485
LeftToes  -1.20963e-009 8.6283e-011 2.04439e-011
112
root  -48.7426 37.2167 6.40584 -84.6496 -83.3056 77.6797
RightUpLeg  -26.3509 -11.8828 -9.4703
RightLeg  13.6735 4.79913 1.13781
RightFoot  8.00349 -0.749539 4.60876
RightToes  5.82063e-011 0 -3.6325e-017
Spine  19.2303 -2.56768 1.52637
Spine1  10.1903 -1.44624 -3.3992
HEad  -24.1764 -5.58637 -1.78953
LeftShoulder1  0.859965 0.133953 -18.9688
LeftArm  -7.74242 -49.4458 -53.1991
LeftForeArm  -5.67623 -39.7886 -9.66638
LeftHand  -0.00127402 8.73972 1.56167
RightShoulder  0.306126 -2.04924 14.3857
RightArm  -18.0494 44.5317 38.3995
RightForeArm  -26.7794 29.7529 7.80779
RightHand  -1.63113 11.4542 -11.557
LeftUpLeg  0.312915 0.430673 -8.53181
LeftLeg  41.7696 -0.0854526 0.189118
LeftFoot  -24.8196 0.0566652 -0.839616
LeftToes  -1.20963e-009 8.6283e-011 2.04439e-011
113
root  -49.7936 36.4722 6.02032 -82.811 -84.722 76.4936
RightUpLeg  -31.3773 -11.9289 -7.64242
RightLeg  23.9781 4.98952 2.23896
RightFoot  8.48921 -1.0179 6.16346
RightToes  5.82063e-011 0 -3.6325e-017
Spine  21.2794 -3.2963 5.34311
Spine1  8.4079 -0.933266 -5.47394
HEad  -25.934 -6.05973 -1.96795
LeftShoulder1  0.937982 -0.54612 -16.4866
LeftArm  -10.6073 -54.8686 -52.961
LeftForeArm  -6.60702 -35.8441 -8.47971
LeftHand  -0.0434553 9.04863 0.163823
RightShoulder  0.452118 -1.01663 11.0857
RightArm  -23.1984 50.5945 35.5436
RightForeArm  -26.6131 23.6622 5.9615
RightHand  -1.09749 10.628 -8.3488
LeftUpLeg  -6.37986 2.53902 -5.00279
LeftLeg  56.166 -2.18886 -3.01886
LeftFoot  -19.903 -0.28231 -5.98271
LeftToes  -1.20963e-009 8.6283e-011 2.04439e-011
114
root  -50.6972 35.8081 5.63233 -55.9676 -86.2599 49.3693
RightUpLeg  -34.6596 -14.0849 -4.52662
RightLeg  33.0665 5.5072 3.55351
RightFoot  7.41676 -0.000258593 0.264023
RightToes  5.82063e-011 0 -3.6325e-017
Spine  23.484 -4.44866 9.10426
Spine1  8.12762 -1.26429 -5.39218
HEad  -27.309 -6.43118 -1.797
LeftShoulder1  1.05 -1.67049 -13.2719
LeftArm  -15.0633 -59.8899 -52.655
LeftForeArm  -6.91238 -31.1534 -7.22424
LeftHand  -0.0749303 9.20754 -0.742769
RightShoulder  0.501371 -0.204481 7.68151
RightArm  -25.8332 56.4042 30.8674
RightForeArm  -32.254 16.76 2.70386
RightHand  -1.03929 10.2001 -8.11004
LeftUpLeg  -13.7763 3.03137 -0.776122
LeftLeg  69.6514 -1.89266 -4.50975
LeftFoot  -7.49187 0.203867 -7.75862
LeftToes  -1.20963e-009 8.6283e-011 2.04439e-011
115
root  -51.4712 35.2419 5.1959 -26.0013 -85.8316 18.2807
RightUpLeg  -36.0622 -15.2659 -3.02594
RightLeg  40.3584 4.15453 3.4911
RightFoot  4.5349 0.45946 -3.02992
RightToes  5.82063e-011 0 -3.6325e-017
Spine  25.947 -4.96723 10.4101
Spine1  8.77064 -1.79811 -3.32479
HEad  -28.9111 -7.39277 -1.10105
LeftShoulder1  1.13597 -2.69506 -11.119
LeftArm  -18.5649 -65.6883 -51.8166
LeftForeArm  -8.725 -24.9241 -5.64931
LeftHand  -0.114446 10.2271 -1.2943
RightShoulder  0.470599 0.387404 4.18452
RightArm  -28.5981 61.543 24.5425
RightForeArm  -38.7735 9.15911 -0.205708
RightHand  -0.929263 9.8863 -7.4414
LeftUpLeg  -20.2586 3.3244 1.65124
LeftLeg  79.427 -0.633173 -2.6454
LeftFoot  3.67072 0.456474 -3.28406
LeftToes  -1.20963e-009 8.6283e-011 2.04439e-011
